<?xml version="1.0" encoding="utf-8" standalone="no"?>
<!DOCTYPE svg PUBLIC "-//W3C//DTD SVG 1.1//EN"
  "http://www.w3.org/Graphics/SVG/1.1/DTD/svg11.dtd">
<svg xmlns:xlink="http://www.w3.org/1999/xlink" width="504pt" height="504pt" viewBox="0 0 504 504" xmlns="http://www.w3.org/2000/svg" version="1.1">
 <metadata>
  <rdf:RDF xmlns:dc="http://purl.org/dc/elements/1.1/" xmlns:cc="http://creativecommons.org/ns#" xmlns:rdf="http://www.w3.org/1999/02/22-rdf-syntax-ns#">
   <cc:Work>
    <dc:type rdf:resource="http://purl.org/dc/dcmitype/StillImage"/>
    <dc:date>2021-09-10T00:52:17.939205</dc:date>
    <dc:format>image/svg+xml</dc:format>
    <dc:creator>
     <cc:Agent>
      <dc:title>Matplotlib v3.5.0.dev1884+g8ce14fb60d.d20210910, https://matplotlib.org/</dc:title>
     </cc:Agent>
    </dc:creator>
   </cc:Work>
  </rdf:RDF>
 </metadata>
 <defs>
  <style type="text/css">*{stroke-linejoin: round; stroke-linecap: butt}</style>
 </defs>
 <g id="figure_1">
  <g id="patch_1">
   <path d="M 0 504 
L 504 504 
L 504 0 
L 0 0 
L 0 504 
z
" style="fill: none"/>
  </g>
  <g id="axes_1">
   <g id="patch_2">
    <path d="M 452.34 254.52 
C 452.34 229.038901 447.320779 203.805573 437.569584 180.264107 
C 427.81839 156.722641 413.524858 135.330858 395.507 117.313 
C 377.489142 99.295142 356.097359 85.00161 332.555893 75.250416 
C 309.014427 65.499221 283.781099 60.48 258.3 60.48 
C 232.818901 60.48 207.585573 65.499221 184.044107 75.250416 
C 160.502641 85.00161 139.110858 99.295142 121.093 117.313 
C 103.075142 135.330858 88.78161 156.722641 79.030416 180.264107 
C 69.279221 203.805573 64.26 229.038901 64.26 254.52 
C 64.26 280.001099 69.279221 305.234427 79.030416 328.775893 
C 88.78161 352.317359 103.075142 373.709142 121.093 391.727 
C 139.110858 409.744858 160.502641 424.03839 184.044107 433.789584 
C 207.585573 443.540779 232.818901 448.56 258.3 448.56 
C 283.781099 448.56 309.014427 443.540779 332.555893 433.789584 
C 356.097359 424.03839 377.489142 409.744858 395.507 391.727 
C 413.524858 373.709142 427.81839 352.317359 437.569584 328.775893 
C 447.320779 305.234427 452.34 280.001099 452.34 254.52 
M 258.3 254.52 
C 258.3 254.52 258.3 254.52 258.3 254.52 
C 258.3 254.52 258.3 254.52 258.3 254.52 
C 258.3 254.52 258.3 254.52 258.3 254.52 
C 258.3 254.52 258.3 254.52 258.3 254.52 
C 258.3 254.52 258.3 254.52 258.3 254.52 
C 258.3 254.52 258.3 254.52 258.3 254.52 
C 258.3 254.52 258.3 254.52 258.3 254.52 
C 258.3 254.52 258.3 254.52 258.3 254.52 
C 258.3 254.52 258.3 254.52 258.3 254.52 
C 258.3 254.52 258.3 254.52 258.3 254.52 
C 258.3 254.52 258.3 254.52 258.3 254.52 
C 258.3 254.52 258.3 254.52 258.3 254.52 
C 258.3 254.52 258.3 254.52 258.3 254.52 
C 258.3 254.52 258.3 254.52 258.3 254.52 
C 258.3 254.52 258.3 254.52 258.3 254.52 
C 258.3 254.52 258.3 254.52 258.3 254.52 
M 452.34 254.52 
L 452.34 254.52 
z
" style="fill: none"/>
   </g>
   <g id="patch_3">
    <path d="M 258.3 254.52 
C 258.3 254.52 258.3 254.52 258.3 254.52 
C 258.3 254.52 258.3 254.52 258.3 254.52 
L 332.74425 75.328551 
C 320.975323 70.439206 308.753287 66.721169 296.255322 64.228342 
C 283.757356 61.735514 271.044149 60.48 258.3 60.48 
z
" clip-path="url(#p6e78deb803)" style="fill: #a52a2a; opacity: 0.5"/>
   </g>
   <g id="patch_4">
    <path d="M 258.3 254.52 
C 258.3 254.52 258.3 254.52 258.3 254.52 
C 258.3 254.52 258.3 254.52 258.3 254.52 
L 376.531893 100.660515 
C 369.798125 95.486014 362.731916 90.759152 355.378861 86.510428 
C 348.025805 82.261704 340.401751 78.500276 332.555893 75.250416 
z
" clip-path="url(#p6e78deb803)" style="fill: #008080; opacity: 0.5"/>
   </g>
   <g id="patch_5">
    <path d="M 258.3 254.52 
C 258.3 254.52 258.3 254.52 258.3 254.52 
C 258.3 254.52 258.3 254.52 258.3 254.52 
L 412.325004 136.503815 
C 407.159943 129.762804 401.557912 123.368136 395.555056 117.361073 
C 389.5522 111.35401 383.161459 105.7475 376.424068 100.577718 
z
" clip-path="url(#p6e78deb803)" style="fill: #008080; opacity: 0.5"/>
   </g>
   <g id="patch_6">
    <path d="M 258.3 254.52 
C 258.3 254.52 258.3 254.52 258.3 254.52 
C 258.3 254.52 258.3 254.52 258.3 254.52 
L 437.621565 180.389723 
C 434.377202 172.54159 430.621117 164.914903 426.377546 157.558873 
C 422.133975 150.202842 417.412064 143.133323 412.242282 136.395932 
z
" clip-path="url(#p6e78deb803)" style="fill: #ffc0cb; opacity: 0.5"/>
   </g>
   <g id="patch_7">
    <path d="M 258.3 254.52 
C 258.3 254.52 258.3 254.52 258.3 254.52 
C 258.3 254.52 258.3 254.52 258.3 254.52 
L 445.745829 204.364413 
C 444.648577 200.263667 443.417052 196.200033 442.053244 192.18007 
C 440.689436 188.160107 439.194078 184.185981 437.569584 180.264107 
z
" clip-path="url(#p6e78deb803)" style="fill: #ffc0cb; opacity: 0.5"/>
   </g>
   <g id="patch_8">
    <path d="M 258.3 254.52 
C 258.3 254.52 258.3 254.52 258.3 254.52 
C 258.3 254.52 258.3 254.52 258.3 254.52 
L 332.430277 433.841565 
C 340.27841 430.597202 347.905097 426.841117 355.261127 422.597546 
C 362.617158 418.353975 369.686677 413.632064 376.424068 408.462282 
z
" clip-path="url(#p6e78deb803)" style="fill: #f08080; opacity: 0.5"/>
   </g>
   <g id="patch_9">
    <path d="M 258.3 254.52 
C 258.3 254.52 258.3 254.52 258.3 254.52 
C 258.3 254.52 258.3 254.52 258.3 254.52 
L 283.492512 446.917658 
C 291.91293 445.81509 300.25189 444.160923 308.455587 441.965829 
C 316.659284 439.770734 324.710035 437.039445 332.555893 433.789584 
z
" clip-path="url(#p6e78deb803)" style="fill: #f08080; opacity: 0.5"/>
   </g>
   <g id="patch_10">
    <path d="M 258.3 254.52 
C 258.3 254.52 258.3 254.52 258.3 254.52 
C 258.3 254.52 258.3 254.52 258.3 254.52 
L 232.83792 446.882169 
C 241.256784 447.996535 249.739732 448.557013 258.232027 448.559988 
C 266.724322 448.562963 275.20766 448.008428 283.627302 446.899961 
z
" clip-path="url(#p6e78deb803)" style="fill: #ffa500; opacity: 0.5"/>
   </g>
   <g id="patch_11">
    <path d="M 258.3 254.52 
C 258.3 254.52 258.3 254.52 258.3 254.52 
C 258.3 254.52 258.3 254.52 258.3 254.52 
L 183.918527 433.737516 
C 191.762106 436.992873 199.810941 439.729802 208.013098 441.930643 
C 216.215255 444.131484 224.553055 445.791494 232.972698 446.899961 
z
" clip-path="url(#p6e78deb803)" style="fill: #ffa500; opacity: 0.5"/>
   </g>
   <g id="patch_12">
    <path d="M 258.3 254.52 
C 258.3 254.52 258.3 254.52 258.3 254.52 
C 258.3 254.52 258.3 254.52 258.3 254.52 
L 140.068107 408.379485 
C 146.801875 413.553986 153.868084 418.280848 161.221139 422.529572 
C 168.574195 426.778296 176.198249 430.539724 184.044107 433.789584 
z
" clip-path="url(#p6e78deb803)" style="fill: #ffa500; opacity: 0.5"/>
   </g>
   <g id="patch_13">
    <path d="M 258.3 254.52 
C 258.3 254.52 258.3 254.52 258.3 254.52 
C 258.3 254.52 258.3 254.52 258.3 254.52 
L 104.274996 372.536185 
C 109.440057 379.277196 115.042088 385.671864 121.044944 391.678927 
C 127.0478 397.68599 133.438541 403.2925 140.175932 408.462282 
z
" clip-path="url(#p6e78deb803)" style="fill: #fada5e; opacity: 0.5"/>
   </g>
   <g id="patch_14">
    <path d="M 258.3 254.52 
C 258.3 254.52 258.3 254.52 258.3 254.52 
C 258.3 254.52 258.3 254.52 258.3 254.52 
L 78.978435 328.650277 
C 82.222798 336.49841 85.978883 344.125097 90.222454 351.481127 
C 94.466025 358.837158 99.187936 365.906677 104.357718 372.644068 
z
" clip-path="url(#p6e78deb803)" style="fill: #fada5e; opacity: 0.5"/>
   </g>
   <g id="patch_15">
    <path d="M 258.3 254.52 
C 258.3 254.52 258.3 254.52 258.3 254.52 
C 258.3 254.52 258.3 254.52 258.3 254.52 
L 70.854171 304.675587 
C 71.951423 308.776333 73.182948 312.839967 74.546756 316.85993 
C 75.910564 320.879893 77.405922 324.854019 79.030416 328.775893 
z
" clip-path="url(#p6e78deb803)" style="fill: #90ee90; opacity: 0.5"/>
   </g>
   <g id="patch_16">
    <path d="M 258.3 254.52 
C 258.3 254.52 258.3 254.52 258.3 254.52 
C 258.3 254.52 258.3 254.52 258.3 254.52 
L 65.934859 229.080382 
C 65.007142 236.095442 64.463851 243.156001 64.30742 250.230409 
C 64.15099 257.304817 64.381655 264.38249 64.998381 271.4317 
z
" clip-path="url(#p6e78deb803)" style="fill: #90ee90; opacity: 0.5"/>
   </g>
   <g id="patch_17">
    <path d="M 258.3 254.52 
C 258.3 254.52 258.3 254.52 258.3 254.52 
C 258.3 254.52 258.3 254.52 258.3 254.52 
L 79.082484 180.138527 
C 75.827127 187.982106 73.090198 196.030941 70.889357 204.233098 
C 68.688516 212.435255 67.028506 220.773055 65.920039 229.192698 
z
" clip-path="url(#p6e78deb803)" style="fill: #6e89a6; opacity: 0.5"/>
   </g>
   <g id="patch_18">
    <path d="M 258.3 254.52 
C 258.3 254.52 258.3 254.52 258.3 254.52 
C 258.3 254.52 258.3 254.52 258.3 254.52 
L 90.290428 157.441139 
C 88.166637 161.116678 86.164033 164.860921 84.285848 168.667822 
C 82.407663 172.474723 80.654909 176.342233 79.030416 180.264107 
z
" clip-path="url(#p6e78deb803)" style="fill: #6e89a6; opacity: 0.5"/>
   </g>
   <g id="patch_19">
    <path d="M 258.3 254.52 
C 258.3 254.52 258.3 254.52 258.3 254.52 
C 258.3 254.52 258.3 254.52 258.3 254.52 
L 121.189163 117.216905 
C 115.179997 123.217656 109.571249 129.606433 104.399107 136.342013 
C 99.226965 143.077592 94.502578 150.145456 90.256431 157.5 
z
" clip-path="url(#p6e78deb803)" style="fill: #4b0082; opacity: 0.5"/>
   </g>
   <g id="patch_20">
    <path d="M 258.3 254.52 
C 258.3 254.52 258.3 254.52 258.3 254.52 
C 258.3 254.52 258.3 254.52 258.3 254.52 
L 161.397757 86.408499 
C 154.04024 90.649493 146.969068 95.368926 140.229866 100.536348 
C 133.490665 105.703769 127.09796 111.30804 121.093 117.313 
z
" clip-path="url(#p6e78deb803)" style="fill: #ee82ee; opacity: 0.5"/>
   </g>
   <g id="patch_21">
    <path d="M 258.3 254.52 
C 258.3 254.52 258.3 254.52 258.3 254.52 
C 258.3 254.52 258.3 254.52 258.3 254.52 
L 208.210079 67.056613 
C 200.005614 69.248833 191.953907 71.977302 184.106911 75.224414 
C 176.259915 78.471526 168.634544 82.230283 161.28 86.476431 
z
" clip-path="url(#p6e78deb803)" style="fill: #ee82ee; opacity: 0.5"/>
   </g>
   <g id="patch_22">
    <path d="M 258.3 254.52 
C 258.3 254.52 258.3 254.52 258.3 254.52 
C 258.3 254.52 258.3 254.52 258.3 254.52 
L 258.345316 60.480005 
C 255.515453 60.479344 252.685914 60.540589 249.85873 60.663696 
C 247.031547 60.786803 244.207394 60.971742 241.3883 61.218381 
z
" clip-path="url(#p6e78deb803)" style="fill: #a52a2a; opacity: 0.5"/>
   </g>
   <g id="patch_23">
    <path d="M 258.3 254.52 
C 258.3 254.52 258.3 254.52 258.3 254.52 
C 258.3 254.52 258.3 254.52 258.3 254.52 
L 332.679411 535.915854 
C 392.677167 520.057064 446.05876 485.417821 484.984393 437.085357 
C 523.910026 388.752893 546.376031 329.215088 549.082975 267.215859 
z
" clip-path="url(#p6e78deb803)" style="fill: #333333"/>
   </g>
   <g id="patch_24">
    <path d="M 258.3 254.52 
C 258.3 254.52 258.3 254.52 258.3 254.52 
C 258.3 254.52 258.3 254.52 258.3 254.52 
L -31.664246 279.752118 
C -30.928192 288.210758 -29.822365 296.63314 -28.34994 304.995096 
C -26.877515 313.357053 -25.039901 321.650578 -22.842371 329.851871 
z
" clip-path="url(#p6e78deb803)" style="fill: #333333"/>
   </g>
   <g id="patch_25">
    <path d="M 258.3 254.52 
C 258.3 254.52 258.3 254.52 258.3 254.52 
C 258.3 254.52 258.3 254.52 258.3 254.52 
L 233.067882 -35.444246 
C 224.609242 -34.708192 216.18686 -33.602365 207.824904 -32.12994 
C 199.462947 -30.657515 191.169422 -28.819901 182.968129 -26.622371 
z
" clip-path="url(#p6e78deb803)" style="fill: #333333"/>
   </g>
   <g id="matplotlib.axis_1">
    <g id="xtick_1">
     <g id="line2d_1">
      <path d="M 258.3 254.52 
L 258.3 60.48 
" clip-path="url(#p6e78deb803)" style="fill: none; stroke: #b0b0b0; stroke-width: 0.8; stroke-linecap: square"/>
     </g>
     <g id="text_1">
      <!-- 0:00 -->
      <g transform="translate(247.071875 49.239375)scale(0.1 -0.1)">
       <defs>
        <path id="DejaVuSans-30" d="M 2034 4250 
Q 1547 4250 1301 3770 
Q 1056 3291 1056 2328 
Q 1056 1369 1301 889 
Q 1547 409 2034 409 
Q 2525 409 2770 889 
Q 3016 1369 3016 2328 
Q 3016 3291 2770 3770 
Q 2525 4250 2034 4250 
z
M 2034 4750 
Q 2819 4750 3233 4129 
Q 3647 3509 3647 2328 
Q 3647 1150 3233 529 
Q 2819 -91 2034 -91 
Q 1250 -91 836 529 
Q 422 1150 422 2328 
Q 422 3509 836 4129 
Q 1250 4750 2034 4750 
z
" transform="scale(0.015625)"/>
        <path id="DejaVuSans-3a" d="M 750 794 
L 1409 794 
L 1409 0 
L 750 0 
L 750 794 
z
M 750 3309 
L 1409 3309 
L 1409 2516 
L 750 2516 
L 750 3309 
z
" transform="scale(0.015625)"/>
       </defs>
       <use xlink:href="#DejaVuSans-30"/>
       <use xlink:href="#DejaVuSans-3a" x="63.623047"/>
       <use xlink:href="#DejaVuSans-30" x="97.314453"/>
       <use xlink:href="#DejaVuSans-30" x="160.9375"/>
      </g>
     </g>
    </g>
    <g id="xtick_2">
     <g id="line2d_2">
      <path d="M 258.3 254.52 
L 308.521248 67.091753 
" clip-path="url(#p6e78deb803)" style="fill: none; stroke: #b0b0b0; stroke-width: 0.8; stroke-linecap: square"/>
     </g>
     <g id="text_2">
      <!-- 1:00 -->
      <g transform="translate(300.916589 56.328166)scale(0.1 -0.1)">
       <defs>
        <path id="DejaVuSans-31" d="M 794 531 
L 1825 531 
L 1825 4091 
L 703 3866 
L 703 4441 
L 1819 4666 
L 2450 4666 
L 2450 531 
L 3481 531 
L 3481 0 
L 794 0 
L 794 531 
z
" transform="scale(0.015625)"/>
       </defs>
       <use xlink:href="#DejaVuSans-31"/>
       <use xlink:href="#DejaVuSans-3a" x="63.623047"/>
       <use xlink:href="#DejaVuSans-30" x="97.314453"/>
       <use xlink:href="#DejaVuSans-30" x="160.9375"/>
      </g>
     </g>
    </g>
    <g id="xtick_3">
     <g id="line2d_3">
      <path d="M 258.3 254.52 
L 355.32 86.476431 
" clip-path="url(#p6e78deb803)" style="fill: none; stroke: #b0b0b0; stroke-width: 0.8; stroke-linecap: square"/>
     </g>
     <g id="text_3">
      <!-- 2:00 -->
      <g transform="translate(351.091875 77.11145)scale(0.1 -0.1)">
       <defs>
        <path id="DejaVuSans-32" d="M 1228 531 
L 3431 531 
L 3431 0 
L 469 0 
L 469 531 
Q 828 903 1448 1529 
Q 2069 2156 2228 2338 
Q 2531 2678 2651 2914 
Q 2772 3150 2772 3378 
Q 2772 3750 2511 3984 
Q 2250 4219 1831 4219 
Q 1534 4219 1204 4116 
Q 875 4013 500 3803 
L 500 4441 
Q 881 4594 1212 4672 
Q 1544 4750 1819 4750 
Q 2544 4750 2975 4387 
Q 3406 4025 3406 3419 
Q 3406 3131 3298 2873 
Q 3191 2616 2906 2266 
Q 2828 2175 2409 1742 
Q 1991 1309 1228 531 
z
" transform="scale(0.015625)"/>
       </defs>
       <use xlink:href="#DejaVuSans-32"/>
       <use xlink:href="#DejaVuSans-3a" x="63.623047"/>
       <use xlink:href="#DejaVuSans-30" x="97.314453"/>
       <use xlink:href="#DejaVuSans-30" x="160.9375"/>
      </g>
     </g>
    </g>
    <g id="xtick_4">
     <g id="line2d_4">
      <path d="M 258.3 254.52 
L 395.507 117.313 
" clip-path="url(#p6e78deb803)" style="fill: none; stroke: #b0b0b0; stroke-width: 0.8; stroke-linecap: square"/>
     </g>
     <g id="text_4">
      <!-- 3:00 -->
      <g transform="translate(394.17837 110.17288)scale(0.1 -0.1)">
       <defs>
        <path id="DejaVuSans-33" d="M 2597 2516 
Q 3050 2419 3304 2112 
Q 3559 1806 3559 1356 
Q 3559 666 3084 287 
Q 2609 -91 1734 -91 
Q 1441 -91 1130 -33 
Q 819 25 488 141 
L 488 750 
Q 750 597 1062 519 
Q 1375 441 1716 441 
Q 2309 441 2620 675 
Q 2931 909 2931 1356 
Q 2931 1769 2642 2001 
Q 2353 2234 1838 2234 
L 1294 2234 
L 1294 2753 
L 1863 2753 
Q 2328 2753 2575 2939 
Q 2822 3125 2822 3475 
Q 2822 3834 2567 4026 
Q 2313 4219 1838 4219 
Q 1578 4219 1281 4162 
Q 984 4106 628 3988 
L 628 4550 
Q 988 4650 1302 4700 
Q 1616 4750 1894 4750 
Q 2613 4750 3031 4423 
Q 3450 4097 3450 3541 
Q 3450 3153 3228 2886 
Q 3006 2619 2597 2516 
z
" transform="scale(0.015625)"/>
       </defs>
       <use xlink:href="#DejaVuSans-33"/>
       <use xlink:href="#DejaVuSans-3a" x="63.623047"/>
       <use xlink:href="#DejaVuSans-30" x="97.314453"/>
       <use xlink:href="#DejaVuSans-30" x="160.9375"/>
      </g>
     </g>
    </g>
    <g id="xtick_5">
     <g id="line2d_5">
      <path d="M 258.3 254.52 
L 426.343569 157.5 
" clip-path="url(#p6e78deb803)" style="fill: none; stroke: #b0b0b0; stroke-width: 0.8; stroke-linecap: square"/>
     </g>
     <g id="text_5">
      <!-- 4:00 -->
      <g transform="translate(427.2398 153.259375)scale(0.1 -0.1)">
       <defs>
        <path id="DejaVuSans-34" d="M 2419 4116 
L 825 1625 
L 2419 1625 
L 2419 4116 
z
M 2253 4666 
L 3047 4666 
L 3047 1625 
L 3713 1625 
L 3713 1100 
L 3047 1100 
L 3047 0 
L 2419 0 
L 2419 1100 
L 313 1100 
L 313 1709 
L 2253 4666 
z
" transform="scale(0.015625)"/>
       </defs>
       <use xlink:href="#DejaVuSans-34"/>
       <use xlink:href="#DejaVuSans-3a" x="63.623047"/>
       <use xlink:href="#DejaVuSans-30" x="97.314453"/>
       <use xlink:href="#DejaVuSans-30" x="160.9375"/>
      </g>
     </g>
    </g>
    <g id="xtick_6">
     <g id="line2d_6">
      <path d="M 258.3 254.52 
L 445.728247 204.298752 
" clip-path="url(#p6e78deb803)" style="fill: none; stroke: #b0b0b0; stroke-width: 0.8; stroke-linecap: square"/>
     </g>
     <g id="text_6">
      <!-- 5:00 -->
      <g transform="translate(448.023084 203.434661)scale(0.1 -0.1)">
       <defs>
        <path id="DejaVuSans-35" d="M 691 4666 
L 3169 4666 
L 3169 4134 
L 1269 4134 
L 1269 2991 
Q 1406 3038 1543 3061 
Q 1681 3084 1819 3084 
Q 2600 3084 3056 2656 
Q 3513 2228 3513 1497 
Q 3513 744 3044 326 
Q 2575 -91 1722 -91 
Q 1428 -91 1123 -41 
Q 819 9 494 109 
L 494 744 
Q 775 591 1075 516 
Q 1375 441 1709 441 
Q 2250 441 2565 725 
Q 2881 1009 2881 1497 
Q 2881 1984 2565 2268 
Q 2250 2553 1709 2553 
Q 1456 2553 1204 2497 
Q 953 2441 691 2322 
L 691 4666 
z
" transform="scale(0.015625)"/>
       </defs>
       <use xlink:href="#DejaVuSans-35"/>
       <use xlink:href="#DejaVuSans-3a" x="63.623047"/>
       <use xlink:href="#DejaVuSans-30" x="97.314453"/>
       <use xlink:href="#DejaVuSans-30" x="160.9375"/>
      </g>
     </g>
    </g>
    <g id="xtick_7">
     <g id="line2d_7">
      <path d="M 258.3 254.52 
L 452.34 254.52 
" clip-path="url(#p6e78deb803)" style="fill: none; stroke: #b0b0b0; stroke-width: 0.8; stroke-linecap: square"/>
     </g>
     <g id="text_7">
      <!-- 6:00 -->
      <g transform="translate(455.111875 257.279375)scale(0.1 -0.1)">
       <defs>
        <path id="DejaVuSans-36" d="M 2113 2584 
Q 1688 2584 1439 2293 
Q 1191 2003 1191 1497 
Q 1191 994 1439 701 
Q 1688 409 2113 409 
Q 2538 409 2786 701 
Q 3034 994 3034 1497 
Q 3034 2003 2786 2293 
Q 2538 2584 2113 2584 
z
M 3366 4563 
L 3366 3988 
Q 3128 4100 2886 4159 
Q 2644 4219 2406 4219 
Q 1781 4219 1451 3797 
Q 1122 3375 1075 2522 
Q 1259 2794 1537 2939 
Q 1816 3084 2150 3084 
Q 2853 3084 3261 2657 
Q 3669 2231 3669 1497 
Q 3669 778 3244 343 
Q 2819 -91 2113 -91 
Q 1303 -91 875 529 
Q 447 1150 447 2328 
Q 447 3434 972 4092 
Q 1497 4750 2381 4750 
Q 2619 4750 2861 4703 
Q 3103 4656 3366 4563 
z
" transform="scale(0.015625)"/>
       </defs>
       <use xlink:href="#DejaVuSans-36"/>
       <use xlink:href="#DejaVuSans-3a" x="63.623047"/>
       <use xlink:href="#DejaVuSans-30" x="97.314453"/>
       <use xlink:href="#DejaVuSans-30" x="160.9375"/>
      </g>
     </g>
    </g>
    <g id="xtick_8">
     <g id="line2d_8">
      <path d="M 258.3 254.52 
L 445.728247 304.741248 
" clip-path="url(#p6e78deb803)" style="fill: none; stroke: #b0b0b0; stroke-width: 0.8; stroke-linecap: square"/>
     </g>
     <g id="text_8">
      <!-- 7:00 -->
      <g transform="translate(448.023084 311.124089)scale(0.1 -0.1)">
       <defs>
        <path id="DejaVuSans-37" d="M 525 4666 
L 3525 4666 
L 3525 4397 
L 1831 0 
L 1172 0 
L 2766 4134 
L 525 4134 
L 525 4666 
z
" transform="scale(0.015625)"/>
       </defs>
       <use xlink:href="#DejaVuSans-37"/>
       <use xlink:href="#DejaVuSans-3a" x="63.623047"/>
       <use xlink:href="#DejaVuSans-30" x="97.314453"/>
       <use xlink:href="#DejaVuSans-30" x="160.9375"/>
      </g>
     </g>
    </g>
    <g id="xtick_9">
     <g id="line2d_9">
      <path d="M 258.3 254.52 
L 426.343569 351.54 
" clip-path="url(#p6e78deb803)" style="fill: none; stroke: #b0b0b0; stroke-width: 0.8; stroke-linecap: square"/>
     </g>
     <g id="text_9">
      <!-- 8:00 -->
      <g transform="translate(427.2398 361.299375)scale(0.1 -0.1)">
       <defs>
        <path id="DejaVuSans-38" d="M 2034 2216 
Q 1584 2216 1326 1975 
Q 1069 1734 1069 1313 
Q 1069 891 1326 650 
Q 1584 409 2034 409 
Q 2484 409 2743 651 
Q 3003 894 3003 1313 
Q 3003 1734 2745 1975 
Q 2488 2216 2034 2216 
z
M 1403 2484 
Q 997 2584 770 2862 
Q 544 3141 544 3541 
Q 544 4100 942 4425 
Q 1341 4750 2034 4750 
Q 2731 4750 3128 4425 
Q 3525 4100 3525 3541 
Q 3525 3141 3298 2862 
Q 3072 2584 2669 2484 
Q 3125 2378 3379 2068 
Q 3634 1759 3634 1313 
Q 3634 634 3220 271 
Q 2806 -91 2034 -91 
Q 1263 -91 848 271 
Q 434 634 434 1313 
Q 434 1759 690 2068 
Q 947 2378 1403 2484 
z
M 1172 3481 
Q 1172 3119 1398 2916 
Q 1625 2713 2034 2713 
Q 2441 2713 2670 2916 
Q 2900 3119 2900 3481 
Q 2900 3844 2670 4047 
Q 2441 4250 2034 4250 
Q 1625 4250 1398 4047 
Q 1172 3844 1172 3481 
z
" transform="scale(0.015625)"/>
       </defs>
       <use xlink:href="#DejaVuSans-38"/>
       <use xlink:href="#DejaVuSans-3a" x="63.623047"/>
       <use xlink:href="#DejaVuSans-30" x="97.314453"/>
       <use xlink:href="#DejaVuSans-30" x="160.9375"/>
      </g>
     </g>
    </g>
    <g id="xtick_10">
     <g id="line2d_10">
      <path d="M 258.3 254.52 
L 395.507 391.727 
" clip-path="url(#p6e78deb803)" style="fill: none; stroke: #b0b0b0; stroke-width: 0.8; stroke-linecap: square"/>
     </g>
     <g id="text_10">
      <!-- 9:00 -->
      <g transform="translate(394.17837 404.38587)scale(0.1 -0.1)">
       <defs>
        <path id="DejaVuSans-39" d="M 703 97 
L 703 672 
Q 941 559 1184 500 
Q 1428 441 1663 441 
Q 2288 441 2617 861 
Q 2947 1281 2994 2138 
Q 2813 1869 2534 1725 
Q 2256 1581 1919 1581 
Q 1219 1581 811 2004 
Q 403 2428 403 3163 
Q 403 3881 828 4315 
Q 1253 4750 1959 4750 
Q 2769 4750 3195 4129 
Q 3622 3509 3622 2328 
Q 3622 1225 3098 567 
Q 2575 -91 1691 -91 
Q 1453 -91 1209 -44 
Q 966 3 703 97 
z
M 1959 2075 
Q 2384 2075 2632 2365 
Q 2881 2656 2881 3163 
Q 2881 3666 2632 3958 
Q 2384 4250 1959 4250 
Q 1534 4250 1286 3958 
Q 1038 3666 1038 3163 
Q 1038 2656 1286 2365 
Q 1534 2075 1959 2075 
z
" transform="scale(0.015625)"/>
       </defs>
       <use xlink:href="#DejaVuSans-39"/>
       <use xlink:href="#DejaVuSans-3a" x="63.623047"/>
       <use xlink:href="#DejaVuSans-30" x="97.314453"/>
       <use xlink:href="#DejaVuSans-30" x="160.9375"/>
      </g>
     </g>
    </g>
    <g id="xtick_11">
     <g id="line2d_11">
      <path d="M 258.3 254.52 
L 355.32 422.563569 
" clip-path="url(#p6e78deb803)" style="fill: none; stroke: #b0b0b0; stroke-width: 0.8; stroke-linecap: square"/>
     </g>
     <g id="text_11">
      <!-- 10:00 -->
      <g transform="translate(347.910625 437.4473)scale(0.1 -0.1)">
       <use xlink:href="#DejaVuSans-31"/>
       <use xlink:href="#DejaVuSans-30" x="63.623047"/>
       <use xlink:href="#DejaVuSans-3a" x="127.246094"/>
       <use xlink:href="#DejaVuSans-30" x="160.9375"/>
       <use xlink:href="#DejaVuSans-30" x="224.560547"/>
      </g>
     </g>
    </g>
    <g id="xtick_12">
     <g id="line2d_12">
      <path d="M 258.3 254.52 
L 308.521248 441.948247 
" clip-path="url(#p6e78deb803)" style="fill: none; stroke: #b0b0b0; stroke-width: 0.8; stroke-linecap: square"/>
     </g>
     <g id="text_12">
      <!-- 11:00 -->
      <g transform="translate(297.735339 458.230584)scale(0.1 -0.1)">
       <use xlink:href="#DejaVuSans-31"/>
       <use xlink:href="#DejaVuSans-31" x="63.623047"/>
       <use xlink:href="#DejaVuSans-3a" x="127.246094"/>
       <use xlink:href="#DejaVuSans-30" x="160.9375"/>
       <use xlink:href="#DejaVuSans-30" x="224.560547"/>
      </g>
     </g>
    </g>
    <g id="xtick_13">
     <g id="line2d_13">
      <path d="M 258.3 254.52 
L 258.3 448.56 
" clip-path="url(#p6e78deb803)" style="fill: none; stroke: #b0b0b0; stroke-width: 0.8; stroke-linecap: square"/>
     </g>
     <g id="text_13">
      <!-- 12:00 -->
      <g transform="translate(243.890625 465.319375)scale(0.1 -0.1)">
       <use xlink:href="#DejaVuSans-31"/>
       <use xlink:href="#DejaVuSans-32" x="63.623047"/>
       <use xlink:href="#DejaVuSans-3a" x="127.246094"/>
       <use xlink:href="#DejaVuSans-30" x="160.9375"/>
       <use xlink:href="#DejaVuSans-30" x="224.560547"/>
      </g>
     </g>
    </g>
    <g id="xtick_14">
     <g id="line2d_14">
      <path d="M 258.3 254.52 
L 208.078752 441.948247 
" clip-path="url(#p6e78deb803)" style="fill: none; stroke: #b0b0b0; stroke-width: 0.8; stroke-linecap: square"/>
     </g>
     <g id="text_14">
      <!-- 13:00 -->
      <g transform="translate(190.045911 458.230584)scale(0.1 -0.1)">
       <use xlink:href="#DejaVuSans-31"/>
       <use xlink:href="#DejaVuSans-33" x="63.623047"/>
       <use xlink:href="#DejaVuSans-3a" x="127.246094"/>
       <use xlink:href="#DejaVuSans-30" x="160.9375"/>
       <use xlink:href="#DejaVuSans-30" x="224.560547"/>
      </g>
     </g>
    </g>
    <g id="xtick_15">
     <g id="line2d_15">
      <path d="M 258.3 254.52 
L 161.28 422.563569 
" clip-path="url(#p6e78deb803)" style="fill: none; stroke: #b0b0b0; stroke-width: 0.8; stroke-linecap: square"/>
     </g>
     <g id="text_15">
      <!-- 14:00 -->
      <g transform="translate(139.870625 437.4473)scale(0.1 -0.1)">
       <use xlink:href="#DejaVuSans-31"/>
       <use xlink:href="#DejaVuSans-34" x="63.623047"/>
       <use xlink:href="#DejaVuSans-3a" x="127.246094"/>
       <use xlink:href="#DejaVuSans-30" x="160.9375"/>
       <use xlink:href="#DejaVuSans-30" x="224.560547"/>
      </g>
     </g>
    </g>
    <g id="xtick_16">
     <g id="line2d_16">
      <path d="M 258.3 254.52 
L 121.093 391.727 
" clip-path="url(#p6e78deb803)" style="fill: none; stroke: #b0b0b0; stroke-width: 0.8; stroke-linecap: square"/>
     </g>
     <g id="text_16">
      <!-- 15:00 -->
      <g transform="translate(96.78413 404.38587)scale(0.1 -0.1)">
       <use xlink:href="#DejaVuSans-31"/>
       <use xlink:href="#DejaVuSans-35" x="63.623047"/>
       <use xlink:href="#DejaVuSans-3a" x="127.246094"/>
       <use xlink:href="#DejaVuSans-30" x="160.9375"/>
       <use xlink:href="#DejaVuSans-30" x="224.560547"/>
      </g>
     </g>
    </g>
    <g id="xtick_17">
     <g id="line2d_17">
      <path d="M 258.3 254.52 
L 90.256431 351.54 
" clip-path="url(#p6e78deb803)" style="fill: none; stroke: #b0b0b0; stroke-width: 0.8; stroke-linecap: square"/>
     </g>
     <g id="text_17">
      <!-- 16:00 -->
      <g transform="translate(63.7227 361.299375)scale(0.1 -0.1)">
       <use xlink:href="#DejaVuSans-31"/>
       <use xlink:href="#DejaVuSans-36" x="63.623047"/>
       <use xlink:href="#DejaVuSans-3a" x="127.246094"/>
       <use xlink:href="#DejaVuSans-30" x="160.9375"/>
       <use xlink:href="#DejaVuSans-30" x="224.560547"/>
      </g>
     </g>
    </g>
    <g id="xtick_18">
     <g id="line2d_18">
      <path d="M 258.3 254.52 
L 70.871753 304.741248 
" clip-path="url(#p6e78deb803)" style="fill: none; stroke: #b0b0b0; stroke-width: 0.8; stroke-linecap: square"/>
     </g>
     <g id="text_18">
      <!-- 17:00 -->
      <g transform="translate(42.939416 311.124089)scale(0.1 -0.1)">
       <use xlink:href="#DejaVuSans-31"/>
       <use xlink:href="#DejaVuSans-37" x="63.623047"/>
       <use xlink:href="#DejaVuSans-3a" x="127.246094"/>
       <use xlink:href="#DejaVuSans-30" x="160.9375"/>
       <use xlink:href="#DejaVuSans-30" x="224.560547"/>
      </g>
     </g>
    </g>
    <g id="xtick_19">
     <g id="line2d_19">
      <path d="M 258.3 254.52 
L 64.26 254.52 
" clip-path="url(#p6e78deb803)" style="fill: none; stroke: #b0b0b0; stroke-width: 0.8; stroke-linecap: square"/>
     </g>
     <g id="text_19">
      <!-- 18:00 -->
      <g transform="translate(35.850625 257.279375)scale(0.1 -0.1)">
       <use xlink:href="#DejaVuSans-31"/>
       <use xlink:href="#DejaVuSans-38" x="63.623047"/>
       <use xlink:href="#DejaVuSans-3a" x="127.246094"/>
       <use xlink:href="#DejaVuSans-30" x="160.9375"/>
       <use xlink:href="#DejaVuSans-30" x="224.560547"/>
      </g>
     </g>
    </g>
    <g id="xtick_20">
     <g id="line2d_20">
      <path d="M 258.3 254.52 
L 70.871753 204.298752 
" clip-path="url(#p6e78deb803)" style="fill: none; stroke: #b0b0b0; stroke-width: 0.8; stroke-linecap: square"/>
     </g>
     <g id="text_20">
      <!-- 19:00 -->
      <g transform="translate(42.939416 203.434661)scale(0.1 -0.1)">
       <use xlink:href="#DejaVuSans-31"/>
       <use xlink:href="#DejaVuSans-39" x="63.623047"/>
       <use xlink:href="#DejaVuSans-3a" x="127.246094"/>
       <use xlink:href="#DejaVuSans-30" x="160.9375"/>
       <use xlink:href="#DejaVuSans-30" x="224.560547"/>
      </g>
     </g>
    </g>
    <g id="xtick_21">
     <g id="line2d_21">
      <path d="M 258.3 254.52 
L 90.256431 157.5 
" clip-path="url(#p6e78deb803)" style="fill: none; stroke: #b0b0b0; stroke-width: 0.8; stroke-linecap: square"/>
     </g>
     <g id="text_21">
      <!-- 20:00 -->
      <g transform="translate(63.7227 153.259375)scale(0.1 -0.1)">
       <use xlink:href="#DejaVuSans-32"/>
       <use xlink:href="#DejaVuSans-30" x="63.623047"/>
       <use xlink:href="#DejaVuSans-3a" x="127.246094"/>
       <use xlink:href="#DejaVuSans-30" x="160.9375"/>
       <use xlink:href="#DejaVuSans-30" x="224.560547"/>
      </g>
     </g>
    </g>
    <g id="xtick_22">
     <g id="line2d_22">
      <path d="M 258.3 254.52 
L 121.093 117.313 
" clip-path="url(#p6e78deb803)" style="fill: none; stroke: #b0b0b0; stroke-width: 0.8; stroke-linecap: square"/>
     </g>
     <g id="text_22">
      <!-- 21:00 -->
      <g transform="translate(96.78413 110.17288)scale(0.1 -0.1)">
       <use xlink:href="#DejaVuSans-32"/>
       <use xlink:href="#DejaVuSans-31" x="63.623047"/>
       <use xlink:href="#DejaVuSans-3a" x="127.246094"/>
       <use xlink:href="#DejaVuSans-30" x="160.9375"/>
       <use xlink:href="#DejaVuSans-30" x="224.560547"/>
      </g>
     </g>
    </g>
    <g id="xtick_23">
     <g id="line2d_23">
      <path d="M 258.3 254.52 
L 161.28 86.476431 
" clip-path="url(#p6e78deb803)" style="fill: none; stroke: #b0b0b0; stroke-width: 0.8; stroke-linecap: square"/>
     </g>
     <g id="text_23">
      <!-- 22:00 -->
      <g transform="translate(139.870625 77.11145)scale(0.1 -0.1)">
       <use xlink:href="#DejaVuSans-32"/>
       <use xlink:href="#DejaVuSans-32" x="63.623047"/>
       <use xlink:href="#DejaVuSans-3a" x="127.246094"/>
       <use xlink:href="#DejaVuSans-30" x="160.9375"/>
       <use xlink:href="#DejaVuSans-30" x="224.560547"/>
      </g>
     </g>
    </g>
    <g id="xtick_24">
     <g id="line2d_24">
      <path d="M 258.3 254.52 
L 208.078752 67.091753 
" clip-path="url(#p6e78deb803)" style="fill: none; stroke: #b0b0b0; stroke-width: 0.8; stroke-linecap: square"/>
     </g>
     <g id="text_24">
      <!-- 23:00 -->
      <g transform="translate(190.045911 56.328166)scale(0.1 -0.1)">
       <use xlink:href="#DejaVuSans-32"/>
       <use xlink:href="#DejaVuSans-33" x="63.623047"/>
       <use xlink:href="#DejaVuSans-3a" x="127.246094"/>
       <use xlink:href="#DejaVuSans-30" x="160.9375"/>
       <use xlink:href="#DejaVuSans-30" x="224.560547"/>
      </g>
     </g>
    </g>
   </g>
   <g id="matplotlib.axis_2">
    <g id="ytick_1"/>
    <g id="ytick_2"/>
    <g id="ytick_3"/>
    <g id="ytick_4"/>
    <g id="ytick_5"/>
    <g id="ytick_6"/>
    <g id="ytick_7"/>
    <g id="ytick_8"/>
   </g>
   <g id="patch_26">
    <path d="M 258.3 60.48 
C 232.818901 60.48 207.585573 65.499221 184.044107 75.250416 
C 160.502641 85.00161 139.110858 99.295142 121.093 117.313 
C 103.075142 135.330858 88.78161 156.722641 79.030416 180.264107 
C 69.279221 203.805573 64.26 229.038901 64.26 254.52 
C 64.26 280.001099 69.279221 305.234427 79.030416 328.775893 
C 88.78161 352.317359 103.075142 373.709142 121.093 391.727 
C 139.110858 409.744858 160.502641 424.03839 184.044107 433.789584 
C 207.585573 443.540779 232.818901 448.56 258.3 448.56 
C 283.781099 448.56 309.014427 443.540779 332.555893 433.789584 
C 356.097359 424.03839 377.489142 409.744858 395.507 391.727 
C 413.524858 373.709142 427.81839 352.317359 437.569584 328.775893 
C 447.320779 305.234427 452.34 280.001099 452.34 254.52 
C 452.34 229.038901 447.320779 203.805573 437.569584 180.264107 
C 427.81839 156.722641 413.524858 135.330858 395.507 117.313 
C 377.489142 99.295142 356.097359 85.00161 332.555893 75.250416 
C 309.014427 65.499221 283.781099 60.48 258.3 60.48 
" style="fill: none; stroke: #000000; stroke-width: 0.8; stroke-linejoin: miter; stroke-linecap: square"/>
   </g>
   <g id="text_25">
    <!-- Hours Sleeping (6.17) Hours Awake (17.8) Date 2021-09-09 -->
    <g transform="translate(79.15875 35.640937)scale(0.12 -0.12)">
     <defs>
      <path id="DejaVuSans-48" d="M 628 4666 
L 1259 4666 
L 1259 2753 
L 3553 2753 
L 3553 4666 
L 4184 4666 
L 4184 0 
L 3553 0 
L 3553 2222 
L 1259 2222 
L 1259 0 
L 628 0 
L 628 4666 
z
" transform="scale(0.015625)"/>
      <path id="DejaVuSans-6f" d="M 1959 3097 
Q 1497 3097 1228 2736 
Q 959 2375 959 1747 
Q 959 1119 1226 758 
Q 1494 397 1959 397 
Q 2419 397 2687 759 
Q 2956 1122 2956 1747 
Q 2956 2369 2687 2733 
Q 2419 3097 1959 3097 
z
M 1959 3584 
Q 2709 3584 3137 3096 
Q 3566 2609 3566 1747 
Q 3566 888 3137 398 
Q 2709 -91 1959 -91 
Q 1206 -91 779 398 
Q 353 888 353 1747 
Q 353 2609 779 3096 
Q 1206 3584 1959 3584 
z
" transform="scale(0.015625)"/>
      <path id="DejaVuSans-75" d="M 544 1381 
L 544 3500 
L 1119 3500 
L 1119 1403 
Q 1119 906 1312 657 
Q 1506 409 1894 409 
Q 2359 409 2629 706 
Q 2900 1003 2900 1516 
L 2900 3500 
L 3475 3500 
L 3475 0 
L 2900 0 
L 2900 538 
Q 2691 219 2414 64 
Q 2138 -91 1772 -91 
Q 1169 -91 856 284 
Q 544 659 544 1381 
z
M 1991 3584 
L 1991 3584 
z
" transform="scale(0.015625)"/>
      <path id="DejaVuSans-72" d="M 2631 2963 
Q 2534 3019 2420 3045 
Q 2306 3072 2169 3072 
Q 1681 3072 1420 2755 
Q 1159 2438 1159 1844 
L 1159 0 
L 581 0 
L 581 3500 
L 1159 3500 
L 1159 2956 
Q 1341 3275 1631 3429 
Q 1922 3584 2338 3584 
Q 2397 3584 2469 3576 
Q 2541 3569 2628 3553 
L 2631 2963 
z
" transform="scale(0.015625)"/>
      <path id="DejaVuSans-73" d="M 2834 3397 
L 2834 2853 
Q 2591 2978 2328 3040 
Q 2066 3103 1784 3103 
Q 1356 3103 1142 2972 
Q 928 2841 928 2578 
Q 928 2378 1081 2264 
Q 1234 2150 1697 2047 
L 1894 2003 
Q 2506 1872 2764 1633 
Q 3022 1394 3022 966 
Q 3022 478 2636 193 
Q 2250 -91 1575 -91 
Q 1294 -91 989 -36 
Q 684 19 347 128 
L 347 722 
Q 666 556 975 473 
Q 1284 391 1588 391 
Q 1994 391 2212 530 
Q 2431 669 2431 922 
Q 2431 1156 2273 1281 
Q 2116 1406 1581 1522 
L 1381 1569 
Q 847 1681 609 1914 
Q 372 2147 372 2553 
Q 372 3047 722 3315 
Q 1072 3584 1716 3584 
Q 2034 3584 2315 3537 
Q 2597 3491 2834 3397 
z
" transform="scale(0.015625)"/>
      <path id="DejaVuSans-20" transform="scale(0.015625)"/>
      <path id="DejaVuSans-53" d="M 3425 4513 
L 3425 3897 
Q 3066 4069 2747 4153 
Q 2428 4238 2131 4238 
Q 1616 4238 1336 4038 
Q 1056 3838 1056 3469 
Q 1056 3159 1242 3001 
Q 1428 2844 1947 2747 
L 2328 2669 
Q 3034 2534 3370 2195 
Q 3706 1856 3706 1288 
Q 3706 609 3251 259 
Q 2797 -91 1919 -91 
Q 1588 -91 1214 -16 
Q 841 59 441 206 
L 441 856 
Q 825 641 1194 531 
Q 1563 422 1919 422 
Q 2459 422 2753 634 
Q 3047 847 3047 1241 
Q 3047 1584 2836 1778 
Q 2625 1972 2144 2069 
L 1759 2144 
Q 1053 2284 737 2584 
Q 422 2884 422 3419 
Q 422 4038 858 4394 
Q 1294 4750 2059 4750 
Q 2388 4750 2728 4690 
Q 3069 4631 3425 4513 
z
" transform="scale(0.015625)"/>
      <path id="DejaVuSans-6c" d="M 603 4863 
L 1178 4863 
L 1178 0 
L 603 0 
L 603 4863 
z
" transform="scale(0.015625)"/>
      <path id="DejaVuSans-65" d="M 3597 1894 
L 3597 1613 
L 953 1613 
Q 991 1019 1311 708 
Q 1631 397 2203 397 
Q 2534 397 2845 478 
Q 3156 559 3463 722 
L 3463 178 
Q 3153 47 2828 -22 
Q 2503 -91 2169 -91 
Q 1331 -91 842 396 
Q 353 884 353 1716 
Q 353 2575 817 3079 
Q 1281 3584 2069 3584 
Q 2775 3584 3186 3129 
Q 3597 2675 3597 1894 
z
M 3022 2063 
Q 3016 2534 2758 2815 
Q 2500 3097 2075 3097 
Q 1594 3097 1305 2825 
Q 1016 2553 972 2059 
L 3022 2063 
z
" transform="scale(0.015625)"/>
      <path id="DejaVuSans-70" d="M 1159 525 
L 1159 -1331 
L 581 -1331 
L 581 3500 
L 1159 3500 
L 1159 2969 
Q 1341 3281 1617 3432 
Q 1894 3584 2278 3584 
Q 2916 3584 3314 3078 
Q 3713 2572 3713 1747 
Q 3713 922 3314 415 
Q 2916 -91 2278 -91 
Q 1894 -91 1617 61 
Q 1341 213 1159 525 
z
M 3116 1747 
Q 3116 2381 2855 2742 
Q 2594 3103 2138 3103 
Q 1681 3103 1420 2742 
Q 1159 2381 1159 1747 
Q 1159 1113 1420 752 
Q 1681 391 2138 391 
Q 2594 391 2855 752 
Q 3116 1113 3116 1747 
z
" transform="scale(0.015625)"/>
      <path id="DejaVuSans-69" d="M 603 3500 
L 1178 3500 
L 1178 0 
L 603 0 
L 603 3500 
z
M 603 4863 
L 1178 4863 
L 1178 4134 
L 603 4134 
L 603 4863 
z
" transform="scale(0.015625)"/>
      <path id="DejaVuSans-6e" d="M 3513 2113 
L 3513 0 
L 2938 0 
L 2938 2094 
Q 2938 2591 2744 2837 
Q 2550 3084 2163 3084 
Q 1697 3084 1428 2787 
Q 1159 2491 1159 1978 
L 1159 0 
L 581 0 
L 581 3500 
L 1159 3500 
L 1159 2956 
Q 1366 3272 1645 3428 
Q 1925 3584 2291 3584 
Q 2894 3584 3203 3211 
Q 3513 2838 3513 2113 
z
" transform="scale(0.015625)"/>
      <path id="DejaVuSans-67" d="M 2906 1791 
Q 2906 2416 2648 2759 
Q 2391 3103 1925 3103 
Q 1463 3103 1205 2759 
Q 947 2416 947 1791 
Q 947 1169 1205 825 
Q 1463 481 1925 481 
Q 2391 481 2648 825 
Q 2906 1169 2906 1791 
z
M 3481 434 
Q 3481 -459 3084 -895 
Q 2688 -1331 1869 -1331 
Q 1566 -1331 1297 -1286 
Q 1028 -1241 775 -1147 
L 775 -588 
Q 1028 -725 1275 -790 
Q 1522 -856 1778 -856 
Q 2344 -856 2625 -561 
Q 2906 -266 2906 331 
L 2906 616 
Q 2728 306 2450 153 
Q 2172 0 1784 0 
Q 1141 0 747 490 
Q 353 981 353 1791 
Q 353 2603 747 3093 
Q 1141 3584 1784 3584 
Q 2172 3584 2450 3431 
Q 2728 3278 2906 2969 
L 2906 3500 
L 3481 3500 
L 3481 434 
z
" transform="scale(0.015625)"/>
      <path id="DejaVuSans-28" d="M 1984 4856 
Q 1566 4138 1362 3434 
Q 1159 2731 1159 2009 
Q 1159 1288 1364 580 
Q 1569 -128 1984 -844 
L 1484 -844 
Q 1016 -109 783 600 
Q 550 1309 550 2009 
Q 550 2706 781 3412 
Q 1013 4119 1484 4856 
L 1984 4856 
z
" transform="scale(0.015625)"/>
      <path id="DejaVuSans-2e" d="M 684 794 
L 1344 794 
L 1344 0 
L 684 0 
L 684 794 
z
" transform="scale(0.015625)"/>
      <path id="DejaVuSans-29" d="M 513 4856 
L 1013 4856 
Q 1481 4119 1714 3412 
Q 1947 2706 1947 2009 
Q 1947 1309 1714 600 
Q 1481 -109 1013 -844 
L 513 -844 
Q 928 -128 1133 580 
Q 1338 1288 1338 2009 
Q 1338 2731 1133 3434 
Q 928 4138 513 4856 
z
" transform="scale(0.015625)"/>
      <path id="DejaVuSans-41" d="M 2188 4044 
L 1331 1722 
L 3047 1722 
L 2188 4044 
z
M 1831 4666 
L 2547 4666 
L 4325 0 
L 3669 0 
L 3244 1197 
L 1141 1197 
L 716 0 
L 50 0 
L 1831 4666 
z
" transform="scale(0.015625)"/>
      <path id="DejaVuSans-77" d="M 269 3500 
L 844 3500 
L 1563 769 
L 2278 3500 
L 2956 3500 
L 3675 769 
L 4391 3500 
L 4966 3500 
L 4050 0 
L 3372 0 
L 2619 2869 
L 1863 0 
L 1184 0 
L 269 3500 
z
" transform="scale(0.015625)"/>
      <path id="DejaVuSans-61" d="M 2194 1759 
Q 1497 1759 1228 1600 
Q 959 1441 959 1056 
Q 959 750 1161 570 
Q 1363 391 1709 391 
Q 2188 391 2477 730 
Q 2766 1069 2766 1631 
L 2766 1759 
L 2194 1759 
z
M 3341 1997 
L 3341 0 
L 2766 0 
L 2766 531 
Q 2569 213 2275 61 
Q 1981 -91 1556 -91 
Q 1019 -91 701 211 
Q 384 513 384 1019 
Q 384 1609 779 1909 
Q 1175 2209 1959 2209 
L 2766 2209 
L 2766 2266 
Q 2766 2663 2505 2880 
Q 2244 3097 1772 3097 
Q 1472 3097 1187 3025 
Q 903 2953 641 2809 
L 641 3341 
Q 956 3463 1253 3523 
Q 1550 3584 1831 3584 
Q 2591 3584 2966 3190 
Q 3341 2797 3341 1997 
z
" transform="scale(0.015625)"/>
      <path id="DejaVuSans-6b" d="M 581 4863 
L 1159 4863 
L 1159 1991 
L 2875 3500 
L 3609 3500 
L 1753 1863 
L 3688 0 
L 2938 0 
L 1159 1709 
L 1159 0 
L 581 0 
L 581 4863 
z
" transform="scale(0.015625)"/>
      <path id="DejaVuSans-44" d="M 1259 4147 
L 1259 519 
L 2022 519 
Q 2988 519 3436 956 
Q 3884 1394 3884 2338 
Q 3884 3275 3436 3711 
Q 2988 4147 2022 4147 
L 1259 4147 
z
M 628 4666 
L 1925 4666 
Q 3281 4666 3915 4102 
Q 4550 3538 4550 2338 
Q 4550 1131 3912 565 
Q 3275 0 1925 0 
L 628 0 
L 628 4666 
z
" transform="scale(0.015625)"/>
      <path id="DejaVuSans-74" d="M 1172 4494 
L 1172 3500 
L 2356 3500 
L 2356 3053 
L 1172 3053 
L 1172 1153 
Q 1172 725 1289 603 
Q 1406 481 1766 481 
L 2356 481 
L 2356 0 
L 1766 0 
Q 1100 0 847 248 
Q 594 497 594 1153 
L 594 3053 
L 172 3053 
L 172 3500 
L 594 3500 
L 594 4494 
L 1172 4494 
z
" transform="scale(0.015625)"/>
      <path id="DejaVuSans-2d" d="M 313 2009 
L 1997 2009 
L 1997 1497 
L 313 1497 
L 313 2009 
z
" transform="scale(0.015625)"/>
     </defs>
     <use xlink:href="#DejaVuSans-48"/>
     <use xlink:href="#DejaVuSans-6f" x="75.195312"/>
     <use xlink:href="#DejaVuSans-75" x="136.376953"/>
     <use xlink:href="#DejaVuSans-72" x="199.755859"/>
     <use xlink:href="#DejaVuSans-73" x="240.869141"/>
     <use xlink:href="#DejaVuSans-20" x="292.96875"/>
     <use xlink:href="#DejaVuSans-53" x="324.755859"/>
     <use xlink:href="#DejaVuSans-6c" x="388.232422"/>
     <use xlink:href="#DejaVuSans-65" x="416.015625"/>
     <use xlink:href="#DejaVuSans-65" x="477.539062"/>
     <use xlink:href="#DejaVuSans-70" x="539.0625"/>
     <use xlink:href="#DejaVuSans-69" x="602.539062"/>
     <use xlink:href="#DejaVuSans-6e" x="630.322266"/>
     <use xlink:href="#DejaVuSans-67" x="693.701172"/>
     <use xlink:href="#DejaVuSans-20" x="757.177734"/>
     <use xlink:href="#DejaVuSans-28" x="788.964844"/>
     <use xlink:href="#DejaVuSans-36" x="827.978516"/>
     <use xlink:href="#DejaVuSans-2e" x="891.601562"/>
     <use xlink:href="#DejaVuSans-31" x="923.388672"/>
     <use xlink:href="#DejaVuSans-37" x="987.011719"/>
     <use xlink:href="#DejaVuSans-29" x="1050.634766"/>
     <use xlink:href="#DejaVuSans-20" x="1089.648438"/>
     <use xlink:href="#DejaVuSans-48" x="1121.435547"/>
     <use xlink:href="#DejaVuSans-6f" x="1196.630859"/>
     <use xlink:href="#DejaVuSans-75" x="1257.8125"/>
     <use xlink:href="#DejaVuSans-72" x="1321.191406"/>
     <use xlink:href="#DejaVuSans-73" x="1362.304688"/>
     <use xlink:href="#DejaVuSans-20" x="1414.404297"/>
     <use xlink:href="#DejaVuSans-41" x="1446.191406"/>
     <use xlink:href="#DejaVuSans-77" x="1510.599609"/>
     <use xlink:href="#DejaVuSans-61" x="1592.386719"/>
     <use xlink:href="#DejaVuSans-6b" x="1653.666016"/>
     <use xlink:href="#DejaVuSans-65" x="1707.951172"/>
     <use xlink:href="#DejaVuSans-20" x="1769.474609"/>
     <use xlink:href="#DejaVuSans-28" x="1801.261719"/>
     <use xlink:href="#DejaVuSans-31" x="1840.275391"/>
     <use xlink:href="#DejaVuSans-37" x="1903.898438"/>
     <use xlink:href="#DejaVuSans-2e" x="1967.521484"/>
     <use xlink:href="#DejaVuSans-38" x="1999.308594"/>
     <use xlink:href="#DejaVuSans-29" x="2062.931641"/>
     <use xlink:href="#DejaVuSans-20" x="2101.945312"/>
     <use xlink:href="#DejaVuSans-44" x="2133.732422"/>
     <use xlink:href="#DejaVuSans-61" x="2210.734375"/>
     <use xlink:href="#DejaVuSans-74" x="2272.013672"/>
     <use xlink:href="#DejaVuSans-65" x="2311.222656"/>
     <use xlink:href="#DejaVuSans-20" x="2372.746094"/>
     <use xlink:href="#DejaVuSans-32" x="2404.533203"/>
     <use xlink:href="#DejaVuSans-30" x="2468.15625"/>
     <use xlink:href="#DejaVuSans-32" x="2531.779297"/>
     <use xlink:href="#DejaVuSans-31" x="2595.402344"/>
     <use xlink:href="#DejaVuSans-2d" x="2659.025391"/>
     <use xlink:href="#DejaVuSans-30" x="2695.109375"/>
     <use xlink:href="#DejaVuSans-39" x="2758.732422"/>
     <use xlink:href="#DejaVuSans-2d" x="2822.355469"/>
     <use xlink:href="#DejaVuSans-30" x="2858.439453"/>
     <use xlink:href="#DejaVuSans-39" x="2922.0625"/>
    </g>
   </g>
  </g>
 </g>
 <defs>
  <clipPath id="p6e78deb803">
   <path d="M 452.34 254.52 
C 452.34 229.038901 447.320779 203.805573 437.569584 180.264107 
C 427.81839 156.722641 413.524858 135.330858 395.507 117.313 
C 377.489142 99.295142 356.097359 85.00161 332.555893 75.250416 
C 309.014427 65.499221 283.781099 60.48 258.3 60.48 
C 232.818901 60.48 207.585573 65.499221 184.044107 75.250416 
C 160.502641 85.00161 139.110858 99.295142 121.093 117.313 
C 103.075142 135.330858 88.78161 156.722641 79.030416 180.264107 
C 69.279221 203.805573 64.26 229.038901 64.26 254.52 
C 64.26 280.001099 69.279221 305.234427 79.030416 328.775893 
C 88.78161 352.317359 103.075142 373.709142 121.093 391.727 
C 139.110858 409.744858 160.502641 424.03839 184.044107 433.789584 
C 207.585573 443.540779 232.818901 448.56 258.3 448.56 
C 283.781099 448.56 309.014427 443.540779 332.555893 433.789584 
C 356.097359 424.03839 377.489142 409.744858 395.507 391.727 
C 413.524858 373.709142 427.81839 352.317359 437.569584 328.775893 
C 447.320779 305.234427 452.34 280.001099 452.34 254.52 
M 258.3 254.52 
C 258.3 254.52 258.3 254.52 258.3 254.52 
C 258.3 254.52 258.3 254.52 258.3 254.52 
C 258.3 254.52 258.3 254.52 258.3 254.52 
C 258.3 254.52 258.3 254.52 258.3 254.52 
C 258.3 254.52 258.3 254.52 258.3 254.52 
C 258.3 254.52 258.3 254.52 258.3 254.52 
C 258.3 254.52 258.3 254.52 258.3 254.52 
C 258.3 254.52 258.3 254.52 258.3 254.52 
C 258.3 254.52 258.3 254.52 258.3 254.52 
C 258.3 254.52 258.3 254.52 258.3 254.52 
C 258.3 254.52 258.3 254.52 258.3 254.52 
C 258.3 254.52 258.3 254.52 258.3 254.52 
C 258.3 254.52 258.3 254.52 258.3 254.52 
C 258.3 254.52 258.3 254.52 258.3 254.52 
C 258.3 254.52 258.3 254.52 258.3 254.52 
C 258.3 254.52 258.3 254.52 258.3 254.52 
M 452.34 254.52 
z
"/>
  </clipPath>
 </defs>
</svg>
